<svg id="visual" viewBox="0 0 1920 1080" width="1920" height="1080" xmlns="http://www.w3.org/2000/svg" xmlns:xlink="http://www.w3.org/1999/xlink" version="1.1"><rect width="1920" height="1080" fill="#121619"></rect><g><g transform="translate(262 427)"><path d="M306 -101.5C340.2 5.7 272.5 143.9 169.5 214.2C66.5 284.6 -72 287.1 -162.4 221.9C-252.8 156.6 -295.2 23.4 -260.1 -85.1C-225.1 -193.6 -112.5 -277.4 11.7 -281.2C135.9 -285 271.8 -208.8 306 -101.5Z" fill="none" stroke="#67B59B" stroke-width="20"></path></g><g transform="translate(1766 990)"><path d="M110.9 -40.8C126 10.6 108.4 67.8 67 99.7C25.5 131.6 -39.8 138.1 -80.8 108.9C-121.8 79.7 -138.5 14.6 -120.9 -40C-103.4 -94.6 -51.7 -138.9 -1.9 -138.3C47.9 -137.6 95.7 -92.1 110.9 -40.8Z" fill="none" stroke="#67B59B" stroke-width="20"></path></g><g transform="translate(1594 46)"><path d="M131 -35.8C151.3 19.9 136.6 93.8 88.3 131.2C39.9 168.6 -41.9 169.5 -89.4 132.7C-136.9 96 -149.9 21.5 -129.3 -34.7C-108.6 -90.9 -54.3 -128.9 0.5 -129C55.4 -129.2 110.7 -91.6 131 -35.8Z" stroke="#67B59B" fill="none" stroke-width="20"></path></g></g></svg>