<svg id="visual" viewBox="0 0 4000 2000" width="4000" height="2000" xmlns="http://www.w3.org/2000/svg" xmlns:xlink="http://www.w3.org/1999/xlink" 
version="1.1"><rect width="4000" height="2000" fill="#121619">
</rect>
<g>
<g transform="translate(3242 1041)"><path d="M248.2 -195.6C305.4 -126.1 324.4 -23.9 302.9 68.6C281.4 161.1 219.3 243.7 136.6 283.5C53.9 323.3 -49.5 320.3 -138.2 280.2C-227 240 -301.1 162.9 -321.7 73.2C-342.3 -16.4 -309.3 -118.4 -246.8 -189.1C-184.2 -259.8 -92.1 -299.2 1.7 -300.5C95.5 -301.9 190.9 -265.1 248.2 -195.6Z" fill="none" stroke="#67B59B" stroke-width="20"></path>
<!-- </g><g transform="translate(1792 1007)"><path d="M224.3 -182.9C277.7 -112 299 -19.5 280.8 65.6C262.6 150.7 204.9 228.3 128.2 264.5C51.5 300.8 -44.2 295.7 -127.4 258.1C-210.5 220.5 -281 150.4 -303.7 65.3C-326.3 -19.9 -301.1 -119.9 -242.5 -192C-183.9 -264.1 -92 -308.2 -3.2 -305.7C85.5 -303.1 171 -253.8 224.3 -182.9Z" stroke="#67B59B" fill="none" stroke-width="20"></path> -->
</g><g transform="translate(1000 652)"><path d="M211.1 -167.2C263.5 -102.6 289 -15.4 270.2 59.5C251.4 134.5 188.3 197.2 115.3 227.9C42.3 258.7 -40.6 257.6 -109.7 225.3C-178.8 193 -234.2 129.5 -252.8 55.5C-271.5 -18.5 -253.4 -103.1 -205.1 -166.7C-156.9 -230.3 -78.4 -273 0.5 -273.4C79.3 -273.7 158.7 -231.8 211.1 -167.2Z" stroke="#67B59B" fill="none" stroke-width="20"></path>
</g><g transform="translate(411 1551)"><path d="M175.5 -136.8C218 -86.7 236.4 -14.3 220.1 47.3C203.7 108.9 152.5 159.5 92 187.1C31.6 214.7 -38.1 219.2 -94.9 193.2C-151.6 167.3 -195.6 111 -208.5 49.1C-221.4 -12.7 -203.2 -80.2 -163.3 -129.7C-123.4 -179.2 -61.7 -210.8 2.4 -212.7C66.5 -214.7 133 -186.9 175.5 -136.8Z" stroke="#67B59B" fill="none" stroke-width="20"></path>
</g></g>
</svg>