<svg id="visual" viewBox="0 0 4000 2000" width="4000" height="2000" xmlns="http://www.w3.org/2000/svg" xmlns:xlink="http://www.w3.org/1999/xlink" version="1.1">
<rect width="4000" height="2000" fill="#121619"></rect>

<g>
    <!-- <g transform="translate(3389 852)"><path d="M341.2 -271.5C422.1 -170.7 453.7 -30 426 99.6C398.3 229.2 311.4 347.6 196.1 400.6C80.8 453.6 -62.8 441.2 -183 382.4C-303.1 323.6 -399.8 218.5 -430 95.5C-460.1 -27.5 -423.8 -168.2 -341.1 -269.5C-258.3 -370.8 -129.2 -432.5 0.5 -432.9C130.2 -433.3 260.4 -372.4 341.2 -271.5Z" fill="none" stroke="#67B59B" stroke-width="20"></path></g> -->
    <!-- <g transform="translate(720 809)"><path d="M124.2 -97C153.3 -62.4 164.2 -11.2 152.7 33.1C141.2 77.5 107.4 115.1 65.3 135C23.3 155 -26.8 157.5 -69.6 139C-112.4 120.5 -147.8 81.2 -157.7 36.5C-167.5 -8.3 -151.7 -58.4 -121.2 -93.2C-90.7 -128 -45.3 -147.6 1.1 -148.5C47.5 -149.3 95 -131.5 124.2 -97Z" stroke="#67B59B" fill="none" stroke-width="20"></path></g> -->
    <!-- <g transform="translate(1792 1383)"><path d="M118 -97.1C144 -61.6 149.8 -13 139.4 31.4C128.9 75.9 102.2 116.2 63.3 137.1C24.5 157.9 -26.4 159.2 -65.2 139.1C-104 118.9 -130.6 77.4 -139.3 33.5C-147.9 -10.4 -138.5 -56.7 -112.3 -92.2C-86.1 -127.7 -43 -152.5 1.5 -153.7C46 -154.9 92.1 -132.5 118 -97.1Z" stroke="#67B59B" fill="none" stroke-width="20"></path></g> -->
</g>


</svg>